<mxfile host="Electron" agent="Mozilla/5.0 (Windows NT 10.0; Win64; x64) AppleWebKit/537.36 (KHTML, like Gecko) draw.io/24.7.5 Chrome/126.0.6478.183 Electron/31.3.0 Safari/537.36" version="24.7.5">
  <diagram name="Page-1" id="SjaHX0SKNCmMPlMpZnLW">
    <mxGraphModel dx="5607" dy="4096" grid="1" gridSize="10" guides="1" tooltips="1" connect="1" arrows="1" fold="1" page="1" pageScale="1" pageWidth="827" pageHeight="1169" math="0" shadow="0">
      <root>
        <mxCell id="0" />
        <mxCell id="1" parent="0" />
        <mxCell id="PyB6T44rJo8ZGuRNi5BV-4" value="&lt;b&gt;&lt;font style=&quot;font-size: 22px;&quot;&gt;PNR&lt;/font&gt;&lt;br&gt;&lt;br&gt;&lt;/b&gt;&lt;div&gt;&lt;b&gt;&lt;font style=&quot;font-size: 15px;&quot;&gt;&lt;u&gt;Message Types&lt;/u&gt;&lt;/font&gt;&lt;/b&gt;&lt;/div&gt;&lt;div&gt;&lt;ul&gt;&lt;li&gt;PACS.008&lt;/li&gt;&lt;li&gt;PACS.009&lt;/li&gt;&lt;li&gt;PACS.009COV&lt;/li&gt;&lt;li&gt;MT910&lt;/li&gt;&lt;li&gt;MT940&lt;/li&gt;&lt;li&gt;MT950&lt;/li&gt;&lt;/ul&gt;&lt;/div&gt;" style="rounded=1;whiteSpace=wrap;html=1;" parent="1" vertex="1">
          <mxGeometry x="-210" y="-660" width="320" height="320" as="geometry" />
        </mxCell>
        <mxCell id="PyB6T44rJo8ZGuRNi5BV-5" value="&lt;b&gt;&lt;font style=&quot;font-size: 22px;&quot;&gt;Serbest Bölge = 612 Şube&lt;/font&gt;&lt;br&gt;&lt;/b&gt;&lt;div&gt;&lt;br&gt;&lt;/div&gt;" style="rounded=1;whiteSpace=wrap;html=1;" parent="1" vertex="1">
          <mxGeometry x="-210" y="-260" width="320" height="320" as="geometry" />
        </mxCell>
        <mxCell id="PyB6T44rJo8ZGuRNi5BV-7" value="&lt;span style=&quot;font-size: 22px;&quot;&gt;&lt;b&gt;&lt;strike&gt;Bahreyn Yok&lt;/strike&gt;&lt;/b&gt;&lt;/span&gt;" style="rounded=1;whiteSpace=wrap;html=1;" parent="1" vertex="1">
          <mxGeometry x="150" y="-660" width="320" height="320" as="geometry" />
        </mxCell>
        <mxCell id="PyB6T44rJo8ZGuRNi5BV-9" value="&lt;b&gt;&lt;font style=&quot;font-size: 22px;&quot;&gt;AHL&lt;/font&gt;&lt;br&gt;&lt;/b&gt;" style="rounded=1;whiteSpace=wrap;html=1;" parent="1" vertex="1">
          <mxGeometry x="150" y="-260" width="320" height="320" as="geometry" />
        </mxCell>
        <mxCell id="PyB6T44rJo8ZGuRNi5BV-10" value="&lt;b&gt;&lt;font style=&quot;font-size: 22px;&quot;&gt;Saklama Şube = Şube 1111&lt;br&gt;&lt;/font&gt;&lt;/b&gt;(Sadece Gidende Özel Bir Durumu Olabilir, Gelende Olmayabilir)" style="rounded=1;whiteSpace=wrap;html=1;" parent="1" vertex="1">
          <mxGeometry x="510" y="-260" width="320" height="320" as="geometry" />
        </mxCell>
        <mxCell id="PyB6T44rJo8ZGuRNi5BV-11" value="&lt;b&gt;&lt;font style=&quot;font-size: 22px;&quot;&gt;Haciz ve Resmi Kurum İşlemleri&lt;/font&gt;&lt;/b&gt;" style="rounded=1;whiteSpace=wrap;html=1;" parent="1" vertex="1">
          <mxGeometry x="870" y="-260" width="320" height="320" as="geometry" />
        </mxCell>
        <mxCell id="PyB6T44rJo8ZGuRNi5BV-12" value="&lt;b&gt;&lt;font style=&quot;font-size: 18px;&quot;&gt;Kesinleşenler&lt;/font&gt;&lt;/b&gt;" style="text;html=1;align=center;verticalAlign=middle;whiteSpace=wrap;rounded=0;" parent="1" vertex="1">
          <mxGeometry x="110" y="-740" width="280" height="40" as="geometry" />
        </mxCell>
        <mxCell id="PyB6T44rJo8ZGuRNi5BV-13" value="&lt;b&gt;&lt;font style=&quot;font-size: 18px;&quot;&gt;Bilinmeyenler&lt;/font&gt;&lt;/b&gt;" style="text;html=1;align=center;verticalAlign=middle;whiteSpace=wrap;rounded=0;" parent="1" vertex="1">
          <mxGeometry x="360" y="-300" width="280" height="40" as="geometry" />
        </mxCell>
        <mxCell id="TMzkgg3_MQ0NlH0lSg8t-7" value="Preparation Layer" style="swimlane;whiteSpace=wrap;html=1;" vertex="1" parent="1">
          <mxGeometry x="-350" y="220" width="3240" height="3020" as="geometry" />
        </mxCell>
        <mxCell id="PyB6T44rJo8ZGuRNi5BV-1" value="" style="shape=cylinder3;whiteSpace=wrap;html=1;boundedLbl=1;backgroundOutline=1;size=15;rotation=90;" parent="TMzkgg3_MQ0NlH0lSg8t-7" vertex="1">
          <mxGeometry x="460" y="1150" width="538.44" height="910" as="geometry" />
        </mxCell>
        <mxCell id="PyB6T44rJo8ZGuRNi5BV-2" value="&lt;b style=&quot;font-size: 22px;&quot;&gt;Swift-Core Message Queue&lt;/b&gt;" style="text;html=1;align=center;verticalAlign=middle;whiteSpace=wrap;rounded=0;" parent="TMzkgg3_MQ0NlH0lSg8t-7" vertex="1">
          <mxGeometry x="428.78" y="1580" width="544.22" height="30" as="geometry" />
        </mxCell>
        <mxCell id="DRLnUaCcKrrRja5PIx_H-2" value="&lt;b&gt;&lt;font style=&quot;font-size: 22px;&quot;&gt;DB Storage&lt;/font&gt;&lt;/b&gt;" style="shape=cylinder3;whiteSpace=wrap;html=1;boundedLbl=1;backgroundOutline=1;size=15;" parent="TMzkgg3_MQ0NlH0lSg8t-7" vertex="1">
          <mxGeometry x="2413" y="1510" width="460" height="200" as="geometry" />
        </mxCell>
        <mxCell id="DRLnUaCcKrrRja5PIx_H-3" value="&lt;b&gt;&lt;font style=&quot;font-size: 22px;&quot;&gt;Incoming Swift Message Listener&lt;/font&gt;&lt;br&gt;&lt;br&gt;&lt;/b&gt;&lt;div&gt;&lt;b&gt;&lt;font style=&quot;font-size: 15px;&quot;&gt;&lt;u&gt;Message Types&lt;/u&gt;&lt;/font&gt;&lt;/b&gt;&lt;/div&gt;&lt;div&gt;&lt;ul&gt;&lt;li&gt;PACS.008&lt;/li&gt;&lt;li&gt;PACS.009&lt;/li&gt;&lt;li&gt;PACS.009COV&lt;/li&gt;&lt;li&gt;MT910&lt;/li&gt;&lt;li&gt;MT940&lt;/li&gt;&lt;li&gt;MT950&lt;/li&gt;&lt;/ul&gt;&lt;/div&gt;&lt;div&gt;&lt;br&gt;&lt;/div&gt;&lt;div&gt;&lt;br&gt;&lt;/div&gt;" style="rounded=1;whiteSpace=wrap;html=1;" parent="TMzkgg3_MQ0NlH0lSg8t-7" vertex="1">
          <mxGeometry x="603" y="270" width="530" height="560" as="geometry" />
        </mxCell>
        <mxCell id="TMzkgg3_MQ0NlH0lSg8t-3" value="&lt;b&gt;&lt;font style=&quot;font-size: 22px;&quot;&gt;Message Route Rules&lt;/font&gt;&lt;br&gt;&lt;/b&gt;" style="rounded=1;whiteSpace=wrap;html=1;" vertex="1" parent="TMzkgg3_MQ0NlH0lSg8t-7">
          <mxGeometry x="1510" y="220" width="320" height="320" as="geometry" />
        </mxCell>
        <mxCell id="TMzkgg3_MQ0NlH0lSg8t-4" value="&lt;b&gt;&lt;font style=&quot;font-size: 22px;&quot;&gt;Incoming Swift Migration&lt;/font&gt;&lt;br&gt;&lt;/b&gt;" style="rounded=1;whiteSpace=wrap;html=1;" vertex="1" parent="TMzkgg3_MQ0NlH0lSg8t-7">
          <mxGeometry x="1920" y="230" width="320" height="320" as="geometry" />
        </mxCell>
        <mxCell id="TMzkgg3_MQ0NlH0lSg8t-5" value="&lt;b&gt;&lt;font style=&quot;font-size: 22px;&quot;&gt;4. Create DB Record&lt;/font&gt;&lt;br&gt;&lt;/b&gt;" style="rounded=1;whiteSpace=wrap;html=1;" vertex="1" parent="TMzkgg3_MQ0NlH0lSg8t-7">
          <mxGeometry x="1960" y="1435" width="320" height="320" as="geometry" />
        </mxCell>
        <mxCell id="TMzkgg3_MQ0NlH0lSg8t-11" value="&lt;b&gt;&lt;font style=&quot;font-size: 22px;&quot;&gt;Message Parser&lt;/font&gt;&lt;br&gt;&lt;/b&gt;" style="rounded=1;whiteSpace=wrap;html=1;" vertex="1" parent="TMzkgg3_MQ0NlH0lSg8t-7">
          <mxGeometry x="1503" y="1080" width="320" height="320" as="geometry" />
        </mxCell>
        <mxCell id="TMzkgg3_MQ0NlH0lSg8t-6" value="" style="endArrow=classic;html=1;rounded=0;" edge="1" parent="TMzkgg3_MQ0NlH0lSg8t-7" source="TMzkgg3_MQ0NlH0lSg8t-5" target="DRLnUaCcKrrRja5PIx_H-2">
          <mxGeometry width="50" height="50" relative="1" as="geometry">
            <mxPoint x="1860" y="620" as="sourcePoint" />
            <mxPoint x="1910" y="570" as="targetPoint" />
          </mxGeometry>
        </mxCell>
        <mxCell id="TMzkgg3_MQ0NlH0lSg8t-28" value="&lt;b&gt;&lt;font style=&quot;font-size: 22px;&quot;&gt;Manual Message Claim&lt;/font&gt;&lt;/b&gt;" style="rounded=1;whiteSpace=wrap;html=1;" vertex="1" parent="TMzkgg3_MQ0NlH0lSg8t-7">
          <mxGeometry x="170" y="2070" width="1320" height="880" as="geometry" />
        </mxCell>
        <mxCell id="TMzkgg3_MQ0NlH0lSg8t-33" value="" style="endArrow=classic;html=1;rounded=0;" edge="1" parent="TMzkgg3_MQ0NlH0lSg8t-7" source="DRLnUaCcKrrRja5PIx_H-3" target="TMzkgg3_MQ0NlH0lSg8t-11">
          <mxGeometry width="50" height="50" relative="1" as="geometry">
            <mxPoint x="880" y="2330" as="sourcePoint" />
            <mxPoint x="1870" y="1645" as="targetPoint" />
          </mxGeometry>
        </mxCell>
        <mxCell id="TMzkgg3_MQ0NlH0lSg8t-34" value="&lt;b&gt;&lt;font style=&quot;font-size: 22px;&quot;&gt;History Storage&lt;/font&gt;&lt;/b&gt;" style="shape=cylinder3;whiteSpace=wrap;html=1;boundedLbl=1;backgroundOutline=1;size=15;" vertex="1" parent="TMzkgg3_MQ0NlH0lSg8t-7">
          <mxGeometry x="2413" y="1740" width="460" height="200" as="geometry" />
        </mxCell>
        <mxCell id="TMzkgg3_MQ0NlH0lSg8t-36" value="&lt;font style=&quot;font-size: 22px;&quot;&gt;&lt;b&gt;Birden Fazla Claim Eden Olması Nedeniyle Alınamayanlar&lt;/b&gt;&lt;/font&gt;" style="rounded=1;whiteSpace=wrap;html=1;" vertex="1" parent="TMzkgg3_MQ0NlH0lSg8t-7">
          <mxGeometry x="273" y="2580" width="320" height="320" as="geometry" />
        </mxCell>
        <mxCell id="TMzkgg3_MQ0NlH0lSg8t-37" value="&lt;font style=&quot;font-size: 22px;&quot;&gt;Rule Set’imize Girmediği için Alınmayanlar&lt;/font&gt;" style="rounded=1;whiteSpace=wrap;html=1;" vertex="1" parent="TMzkgg3_MQ0NlH0lSg8t-7">
          <mxGeometry x="653" y="2570" width="320" height="320" as="geometry" />
        </mxCell>
        <mxCell id="TMzkgg3_MQ0NlH0lSg8t-38" value="&lt;b&gt;&lt;font style=&quot;font-size: 22px;&quot;&gt;Release Edilip Geri Manuel Alınanlar&lt;/font&gt;&lt;/b&gt;&lt;div style=&quot;font-size: 16px;&quot;&gt;&lt;b&gt;&lt;font style=&quot;font-size: 16px;&quot;&gt;- DB Storage’da Kaydı Olabilir.&lt;/font&gt;&lt;/b&gt;&lt;/div&gt;&lt;div style=&quot;font-size: 16px;&quot;&gt;&lt;font style=&quot;font-size: 16px;&quot;&gt;&lt;b&gt;&lt;font style=&quot;font-size: 16px;&quot;&gt;-&amp;nbsp;&lt;/font&gt;&lt;/b&gt;&lt;span style=&quot;background-color: initial;&quot;&gt;DB Storage’da Kaydı Varsa Status Update&lt;/span&gt;&lt;/font&gt;&lt;/div&gt;" style="rounded=1;whiteSpace=wrap;html=1;" vertex="1" parent="TMzkgg3_MQ0NlH0lSg8t-7">
          <mxGeometry x="1033" y="2570" width="320" height="320" as="geometry" />
        </mxCell>
        <mxCell id="TMzkgg3_MQ0NlH0lSg8t-39" value="" style="endArrow=classic;html=1;rounded=0;" edge="1" parent="TMzkgg3_MQ0NlH0lSg8t-7" source="TMzkgg3_MQ0NlH0lSg8t-63" target="TMzkgg3_MQ0NlH0lSg8t-5">
          <mxGeometry width="50" height="50" relative="1" as="geometry">
            <mxPoint x="1500" y="2011" as="sourcePoint" />
            <mxPoint x="1953" y="1700" as="targetPoint" />
          </mxGeometry>
        </mxCell>
        <mxCell id="TMzkgg3_MQ0NlH0lSg8t-40" value="" style="endArrow=classic;html=1;rounded=0;" edge="1" parent="TMzkgg3_MQ0NlH0lSg8t-7" source="TMzkgg3_MQ0NlH0lSg8t-11" target="TMzkgg3_MQ0NlH0lSg8t-3">
          <mxGeometry width="50" height="50" relative="1" as="geometry">
            <mxPoint x="2352" y="570" as="sourcePoint" />
            <mxPoint x="2151" y="1430" as="targetPoint" />
          </mxGeometry>
        </mxCell>
        <mxCell id="TMzkgg3_MQ0NlH0lSg8t-41" value="" style="endArrow=classic;html=1;rounded=0;" edge="1" parent="TMzkgg3_MQ0NlH0lSg8t-7" source="TMzkgg3_MQ0NlH0lSg8t-3" target="TMzkgg3_MQ0NlH0lSg8t-4">
          <mxGeometry width="50" height="50" relative="1" as="geometry">
            <mxPoint x="2355" y="540" as="sourcePoint" />
            <mxPoint x="2371" y="749" as="targetPoint" />
          </mxGeometry>
        </mxCell>
        <mxCell id="TMzkgg3_MQ0NlH0lSg8t-42" value="" style="endArrow=classic;html=1;rounded=0;" edge="1" parent="TMzkgg3_MQ0NlH0lSg8t-7" source="TMzkgg3_MQ0NlH0lSg8t-4" target="PyB6T44rJo8ZGuRNi5BV-1">
          <mxGeometry width="50" height="50" relative="1" as="geometry">
            <mxPoint x="1143" y="506" as="sourcePoint" />
            <mxPoint x="1513" y="1370" as="targetPoint" />
          </mxGeometry>
        </mxCell>
        <mxCell id="TMzkgg3_MQ0NlH0lSg8t-45" value="&lt;b&gt;&lt;font style=&quot;font-size: 22px;&quot;&gt;Message Claim&lt;/font&gt;&lt;/b&gt;" style="edgeLabel;html=1;align=center;verticalAlign=middle;resizable=0;points=[];" vertex="1" connectable="0" parent="TMzkgg3_MQ0NlH0lSg8t-42">
          <mxGeometry x="-0.0095" y="-2" relative="1" as="geometry">
            <mxPoint as="offset" />
          </mxGeometry>
        </mxCell>
        <mxCell id="TMzkgg3_MQ0NlH0lSg8t-49" value="" style="endArrow=classic;html=1;rounded=0;" edge="1" parent="TMzkgg3_MQ0NlH0lSg8t-7" source="PyB6T44rJo8ZGuRNi5BV-1" target="DRLnUaCcKrrRja5PIx_H-3">
          <mxGeometry width="50" height="50" relative="1" as="geometry">
            <mxPoint x="1143" y="506" as="sourcePoint" />
            <mxPoint x="1460" y="442" as="targetPoint" />
          </mxGeometry>
        </mxCell>
        <mxCell id="TMzkgg3_MQ0NlH0lSg8t-50" value="&lt;b&gt;&lt;font style=&quot;font-size: 22px;&quot;&gt;New Message&lt;/font&gt;&lt;/b&gt;" style="edgeLabel;html=1;align=center;verticalAlign=middle;resizable=0;points=[];" vertex="1" connectable="0" parent="TMzkgg3_MQ0NlH0lSg8t-49">
          <mxGeometry x="-0.1056" y="3" relative="1" as="geometry">
            <mxPoint y="1" as="offset" />
          </mxGeometry>
        </mxCell>
        <mxCell id="TMzkgg3_MQ0NlH0lSg8t-51" value="" style="endArrow=classic;html=1;rounded=0;" edge="1" parent="TMzkgg3_MQ0NlH0lSg8t-7" source="TMzkgg3_MQ0NlH0lSg8t-28" target="PyB6T44rJo8ZGuRNi5BV-1">
          <mxGeometry width="50" height="50" relative="1" as="geometry">
            <mxPoint x="1442" y="2080" as="sourcePoint" />
            <mxPoint x="1953" y="1707" as="targetPoint" />
          </mxGeometry>
        </mxCell>
        <mxCell id="TMzkgg3_MQ0NlH0lSg8t-52" value="" style="endArrow=classic;html=1;rounded=0;" edge="1" parent="TMzkgg3_MQ0NlH0lSg8t-7" source="TMzkgg3_MQ0NlH0lSg8t-63" target="TMzkgg3_MQ0NlH0lSg8t-59">
          <mxGeometry width="50" height="50" relative="1" as="geometry">
            <mxPoint x="2313" y="540" as="sourcePoint" />
            <mxPoint x="2143" y="1430" as="targetPoint" />
          </mxGeometry>
        </mxCell>
        <mxCell id="TMzkgg3_MQ0NlH0lSg8t-59" value="&lt;b&gt;&lt;font style=&quot;font-size: 22px;&quot;&gt;Message Parser&lt;/font&gt;&lt;br&gt;&lt;/b&gt;" style="rounded=1;whiteSpace=wrap;html=1;" vertex="1" parent="TMzkgg3_MQ0NlH0lSg8t-7">
          <mxGeometry x="1510" y="1410" width="320" height="320" as="geometry" />
        </mxCell>
        <mxCell id="TMzkgg3_MQ0NlH0lSg8t-63" value="&lt;b&gt;&lt;font style=&quot;font-size: 22px;&quot;&gt;Incoming Swift Migration&lt;/font&gt;&lt;br&gt;&lt;/b&gt;" style="rounded=1;whiteSpace=wrap;html=1;" vertex="1" parent="TMzkgg3_MQ0NlH0lSg8t-7">
          <mxGeometry x="2230" y="520" width="320" height="320" as="geometry" />
        </mxCell>
        <mxCell id="TMzkgg3_MQ0NlH0lSg8t-64" value="" style="endArrow=classic;html=1;rounded=0;" edge="1" parent="TMzkgg3_MQ0NlH0lSg8t-7" source="TMzkgg3_MQ0NlH0lSg8t-4" target="TMzkgg3_MQ0NlH0lSg8t-5">
          <mxGeometry width="50" height="50" relative="1" as="geometry">
            <mxPoint x="1953" y="750" as="sourcePoint" />
            <mxPoint x="1783" y="1640" as="targetPoint" />
          </mxGeometry>
        </mxCell>
        <mxCell id="TMzkgg3_MQ0NlH0lSg8t-65" value="&lt;font style=&quot;font-size: 22px;&quot;&gt;&lt;b&gt;If Message Claim Successful&lt;/b&gt;&lt;/font&gt;" style="edgeLabel;html=1;align=center;verticalAlign=middle;resizable=0;points=[];" vertex="1" connectable="0" parent="TMzkgg3_MQ0NlH0lSg8t-64">
          <mxGeometry x="-0.0008" y="2" relative="1" as="geometry">
            <mxPoint y="1" as="offset" />
          </mxGeometry>
        </mxCell>
        <mxCell id="TMzkgg3_MQ0NlH0lSg8t-12" value="Order Layer" style="swimlane;whiteSpace=wrap;html=1;" vertex="1" parent="1">
          <mxGeometry x="3640" y="170" width="3390" height="3020" as="geometry" />
        </mxCell>
        <mxCell id="TMzkgg3_MQ0NlH0lSg8t-14" value="&lt;b&gt;Swift-Core&lt;br&gt;Mesaj Sahiplenme Queue&lt;/b&gt;" style="text;html=1;align=center;verticalAlign=middle;whiteSpace=wrap;rounded=0;" vertex="1" parent="TMzkgg3_MQ0NlH0lSg8t-12">
          <mxGeometry x="1014.22" y="1530.0000000000002" width="250" height="30" as="geometry" />
        </mxCell>
        <mxCell id="TMzkgg3_MQ0NlH0lSg8t-16" value="&lt;b&gt;&lt;font style=&quot;font-size: 22px;&quot;&gt;DB Storage&lt;/font&gt;&lt;/b&gt;" style="shape=cylinder3;whiteSpace=wrap;html=1;boundedLbl=1;backgroundOutline=1;size=15;" vertex="1" parent="TMzkgg3_MQ0NlH0lSg8t-12">
          <mxGeometry x="2140" y="1650" width="460" height="200" as="geometry" />
        </mxCell>
        <mxCell id="TMzkgg3_MQ0NlH0lSg8t-17" value="" style="endArrow=classic;html=1;rounded=0;entryX=0;entryY=0.5;entryDx=0;entryDy=0;entryPerimeter=0;" edge="1" parent="TMzkgg3_MQ0NlH0lSg8t-12" source="TMzkgg3_MQ0NlH0lSg8t-23" target="TMzkgg3_MQ0NlH0lSg8t-16">
          <mxGeometry width="50" height="50" relative="1" as="geometry">
            <mxPoint x="2220" y="670" as="sourcePoint" />
            <mxPoint x="2270" y="620" as="targetPoint" />
          </mxGeometry>
        </mxCell>
        <mxCell id="TMzkgg3_MQ0NlH0lSg8t-18" value="&lt;b&gt;&lt;font style=&quot;font-size: 22px;&quot;&gt;Manual Ekran&lt;/font&gt;&lt;br&gt;&lt;/b&gt;" style="rounded=1;whiteSpace=wrap;html=1;" vertex="1" parent="TMzkgg3_MQ0NlH0lSg8t-12">
          <mxGeometry x="1329" y="2220" width="320" height="320" as="geometry" />
        </mxCell>
        <mxCell id="TMzkgg3_MQ0NlH0lSg8t-21" value="&lt;b&gt;&lt;font style=&quot;font-size: 22px;&quot;&gt;STP / NonSTP Decisions&lt;/font&gt;&lt;br&gt;&lt;/b&gt;" style="rounded=1;whiteSpace=wrap;html=1;" vertex="1" parent="TMzkgg3_MQ0NlH0lSg8t-12">
          <mxGeometry x="909" y="2220" width="320" height="320" as="geometry" />
        </mxCell>
        <mxCell id="TMzkgg3_MQ0NlH0lSg8t-23" value="&lt;b&gt;&lt;font style=&quot;font-size: 22px;&quot;&gt;1. Swift Message to Order&lt;/font&gt;&lt;br&gt;&lt;/b&gt;" style="rounded=1;whiteSpace=wrap;html=1;" vertex="1" parent="TMzkgg3_MQ0NlH0lSg8t-12">
          <mxGeometry x="490" y="1584" width="320" height="320" as="geometry" />
        </mxCell>
        <mxCell id="TMzkgg3_MQ0NlH0lSg8t-35" value="&lt;b&gt;&lt;font style=&quot;font-size: 22px;&quot;&gt;History Storage&lt;/font&gt;&lt;/b&gt;" style="shape=cylinder3;whiteSpace=wrap;html=1;boundedLbl=1;backgroundOutline=1;size=15;" vertex="1" parent="TMzkgg3_MQ0NlH0lSg8t-12">
          <mxGeometry x="2640" y="1650" width="460" height="200" as="geometry" />
        </mxCell>
        <mxCell id="TMzkgg3_MQ0NlH0lSg8t-56" value="&lt;b style=&quot;font-size: 22px;&quot;&gt;Cancal Order&lt;/b&gt;" style="rounded=1;whiteSpace=wrap;html=1;" vertex="1" parent="TMzkgg3_MQ0NlH0lSg8t-12">
          <mxGeometry x="2100" y="190" width="320" height="320" as="geometry" />
        </mxCell>
        <mxCell id="TMzkgg3_MQ0NlH0lSg8t-58" value="" style="endArrow=classic;html=1;rounded=0;" edge="1" parent="TMzkgg3_MQ0NlH0lSg8t-12" source="TMzkgg3_MQ0NlH0lSg8t-56" target="TMzkgg3_MQ0NlH0lSg8t-16">
          <mxGeometry width="50" height="50" relative="1" as="geometry">
            <mxPoint x="-240" y="2581" as="sourcePoint" />
            <mxPoint x="1790" y="2469" as="targetPoint" />
          </mxGeometry>
        </mxCell>
        <mxCell id="TMzkgg3_MQ0NlH0lSg8t-85" value="&lt;b&gt;&lt;font style=&quot;font-size: 22px;&quot;&gt;Create Transfer&lt;/font&gt;&lt;br&gt;&lt;/b&gt;" style="rounded=1;whiteSpace=wrap;html=1;" vertex="1" parent="TMzkgg3_MQ0NlH0lSg8t-12">
          <mxGeometry x="3020" y="2670" width="320" height="320" as="geometry" />
        </mxCell>
        <mxCell id="TMzkgg3_MQ0NlH0lSg8t-22" value="" style="endArrow=classic;html=1;rounded=0;exitX=1;exitY=0.5;exitDx=0;exitDy=0;exitPerimeter=0;" edge="1" parent="1" source="DRLnUaCcKrrRja5PIx_H-2" target="TMzkgg3_MQ0NlH0lSg8t-23">
          <mxGeometry width="50" height="50" relative="1" as="geometry">
            <mxPoint x="3960" y="1590" as="sourcePoint" />
            <mxPoint x="2630" y="1930" as="targetPoint" />
          </mxGeometry>
        </mxCell>
        <mxCell id="TMzkgg3_MQ0NlH0lSg8t-24" value="&lt;b&gt;&lt;font style=&quot;font-size: 22px;&quot;&gt;Message Release&lt;/font&gt;&lt;br&gt;&lt;/b&gt;&lt;div&gt;&lt;b&gt;&lt;font style=&quot;font-size: 22px;&quot;&gt;&lt;br&gt;&lt;/font&gt;&lt;/b&gt;&lt;/div&gt;" style="rounded=1;whiteSpace=wrap;html=1;" vertex="1" parent="1">
          <mxGeometry x="3010" y="700" width="320" height="320" as="geometry" />
        </mxCell>
        <mxCell id="TMzkgg3_MQ0NlH0lSg8t-25" value="" style="endArrow=classic;html=1;rounded=0;" edge="1" parent="1" source="TMzkgg3_MQ0NlH0lSg8t-24" target="PyB6T44rJo8ZGuRNi5BV-1">
          <mxGeometry width="50" height="50" relative="1" as="geometry">
            <mxPoint x="1160" y="1640" as="sourcePoint" />
            <mxPoint x="1510" y="1240" as="targetPoint" />
          </mxGeometry>
        </mxCell>
        <mxCell id="TMzkgg3_MQ0NlH0lSg8t-27" value="" style="endArrow=classic;html=1;rounded=0;" edge="1" parent="1" source="TMzkgg3_MQ0NlH0lSg8t-24" target="DRLnUaCcKrrRja5PIx_H-2">
          <mxGeometry width="50" height="50" relative="1" as="geometry">
            <mxPoint x="2200" y="2500" as="sourcePoint" />
            <mxPoint x="2170" y="2190" as="targetPoint" />
          </mxGeometry>
        </mxCell>
        <mxCell id="TMzkgg3_MQ0NlH0lSg8t-55" value="&lt;font style=&quot;font-size: 22px;&quot;&gt;If Message doesn&#39;t have Order, just update Prepare Status&lt;/font&gt;" style="edgeLabel;html=1;align=center;verticalAlign=middle;resizable=0;points=[];" vertex="1" connectable="0" parent="TMzkgg3_MQ0NlH0lSg8t-27">
          <mxGeometry x="0.0333" y="7" relative="1" as="geometry">
            <mxPoint x="-1" y="-1" as="offset" />
          </mxGeometry>
        </mxCell>
        <mxCell id="TMzkgg3_MQ0NlH0lSg8t-54" value="" style="endArrow=classic;html=1;rounded=0;" edge="1" parent="1" source="TMzkgg3_MQ0NlH0lSg8t-16" target="TMzkgg3_MQ0NlH0lSg8t-24">
          <mxGeometry width="50" height="50" relative="1" as="geometry">
            <mxPoint x="2986" y="2600" as="sourcePoint" />
            <mxPoint x="2393" y="1940" as="targetPoint" />
          </mxGeometry>
        </mxCell>
        <mxCell id="TMzkgg3_MQ0NlH0lSg8t-57" value="" style="endArrow=classic;html=1;rounded=0;" edge="1" parent="1" source="TMzkgg3_MQ0NlH0lSg8t-24" target="TMzkgg3_MQ0NlH0lSg8t-56">
          <mxGeometry width="50" height="50" relative="1" as="geometry">
            <mxPoint x="5680" y="1999" as="sourcePoint" />
            <mxPoint x="3290" y="2712" as="targetPoint" />
          </mxGeometry>
        </mxCell>
        <mxCell id="TMzkgg3_MQ0NlH0lSg8t-60" value="" style="endArrow=classic;html=1;rounded=0;" edge="1" parent="1" target="TMzkgg3_MQ0NlH0lSg8t-59">
          <mxGeometry width="50" height="50" relative="1" as="geometry">
            <mxPoint x="1092" y="2300" as="sourcePoint" />
            <mxPoint x="1603" y="1927" as="targetPoint" />
          </mxGeometry>
        </mxCell>
        <mxCell id="TMzkgg3_MQ0NlH0lSg8t-61" value="&lt;font style=&quot;font-size: 22px;&quot;&gt;&lt;b&gt;If Message Claim Successful&lt;/b&gt;&lt;/font&gt;" style="edgeLabel;html=1;align=center;verticalAlign=middle;resizable=0;points=[];" vertex="1" connectable="0" parent="TMzkgg3_MQ0NlH0lSg8t-60">
          <mxGeometry x="-0.0008" y="2" relative="1" as="geometry">
            <mxPoint y="1" as="offset" />
          </mxGeometry>
        </mxCell>
        <mxCell id="TMzkgg3_MQ0NlH0lSg8t-15" value="&lt;b&gt;&lt;font style=&quot;font-size: 22px;&quot;&gt;Validations&lt;/font&gt;&lt;br&gt;&lt;br&gt;&lt;/b&gt;&lt;div&gt;&lt;br&gt;&lt;/div&gt;&lt;div&gt;&lt;br&gt;&lt;/div&gt;" style="rounded=1;whiteSpace=wrap;html=1;" vertex="1" parent="1">
          <mxGeometry x="4600" y="3350" width="1200" height="940" as="geometry" />
        </mxCell>
        <mxCell id="TMzkgg3_MQ0NlH0lSg8t-69" value="&lt;b&gt;&lt;font style=&quot;font-size: 22px;&quot;&gt;Ekran Validasyonları&lt;/font&gt;&lt;br&gt;&lt;/b&gt;" style="rounded=1;whiteSpace=wrap;html=1;" vertex="1" parent="1">
          <mxGeometry x="5420" y="3440" width="320" height="320" as="geometry" />
        </mxCell>
        <mxCell id="TMzkgg3_MQ0NlH0lSg8t-70" value="&lt;b&gt;&lt;font style=&quot;font-size: 22px;&quot;&gt;Gelen Ödeme Validasyonları&lt;/font&gt;&lt;br&gt;&lt;/b&gt;" style="rounded=1;whiteSpace=wrap;html=1;" vertex="1" parent="1">
          <mxGeometry x="5060" y="3420" width="320" height="320" as="geometry" />
        </mxCell>
        <mxCell id="TMzkgg3_MQ0NlH0lSg8t-71" value="&lt;b&gt;&lt;font style=&quot;font-size: 22px;&quot;&gt;Kota Validasyonları&lt;/font&gt;&lt;br&gt;&lt;/b&gt;" style="rounded=1;whiteSpace=wrap;html=1;" vertex="1" parent="1">
          <mxGeometry x="4660" y="3430" width="320" height="320" as="geometry" />
        </mxCell>
        <mxCell id="TMzkgg3_MQ0NlH0lSg8t-72" value="Order Layer" style="swimlane;whiteSpace=wrap;html=1;" vertex="1" parent="1">
          <mxGeometry x="3560" y="4530" width="3500" height="3020" as="geometry" />
        </mxCell>
        <mxCell id="TMzkgg3_MQ0NlH0lSg8t-74" value="&lt;b&gt;&lt;font style=&quot;font-size: 22px;&quot;&gt;DB Storage&lt;/font&gt;&lt;/b&gt;" style="shape=cylinder3;whiteSpace=wrap;html=1;boundedLbl=1;backgroundOutline=1;size=15;" vertex="1" parent="TMzkgg3_MQ0NlH0lSg8t-72">
          <mxGeometry x="2140" y="1650" width="460" height="200" as="geometry" />
        </mxCell>
        <mxCell id="TMzkgg3_MQ0NlH0lSg8t-81" value="&lt;b&gt;&lt;font style=&quot;font-size: 22px;&quot;&gt;History Storage&lt;/font&gt;&lt;/b&gt;" style="shape=cylinder3;whiteSpace=wrap;html=1;boundedLbl=1;backgroundOutline=1;size=15;" vertex="1" parent="TMzkgg3_MQ0NlH0lSg8t-72">
          <mxGeometry x="2140" y="1880" width="460" height="200" as="geometry" />
        </mxCell>
        <mxCell id="TMzkgg3_MQ0NlH0lSg8t-84" value="&lt;b&gt;&lt;font style=&quot;font-size: 22px;&quot;&gt;Set Departmant&lt;/font&gt;&lt;br&gt;&lt;/b&gt;" style="rounded=1;whiteSpace=wrap;html=1;" vertex="1" parent="1">
          <mxGeometry x="2910" y="2440" width="320" height="320" as="geometry" />
        </mxCell>
        <mxCell id="TMzkgg3_MQ0NlH0lSg8t-19" value="&lt;b&gt;&lt;font style=&quot;font-size: 22px;&quot;&gt;Set Transaction_Reason&lt;/font&gt;&lt;br&gt;&lt;/b&gt;" style="rounded=1;whiteSpace=wrap;html=1;" vertex="1" parent="1">
          <mxGeometry x="3280" y="2440" width="320" height="320" as="geometry" />
        </mxCell>
      </root>
    </mxGraphModel>
  </diagram>
</mxfile>
